/* XPM */
static char * launcher_xpm[] = {
"32 32 4 1",
" 	c None",
".	c #D8371E",
"+	c #FFFFFF",
"@	c #27A9A9",
"                                ",
"                                ",
"               ..               ",
"              ....              ",
"             .++++.             ",
"            .++++++.            ",
"           .++++++++.           ",
"           .++@@@@++.           ",
"          .++@++++@++.          ",
"          .++@@+++@++.          ",
"          .++@@@@@+++.          ",
"          .+@++++++++.          ",
"          .++@@@@@@++.          ",
"          .++@++@+@++.          ",
"          .++@++@+@++.          ",
"          .++++++++++.          ",
"          .++@@@@@@++.          ",
"          .++@++++@++.          ",
"          .++@++++@++.          ",
"          .+++@@@@+++.          ",
"          .++++++++++.          ",
"          .+++@@@@+++.          ",
"          .++@++++@++.          ",
"          .++@++++@++.          ",
"          .+++@@@@+++.          ",
"         ..++++++++++..         ",
"        ...++++++++++...        ",
"        ...+++....+++...        ",
"        ......    ......        ",
"        ......    ......        ",
"                                ",
"                                "};
