/* XPM */
static char * launcher_xpm[] = {
"32 32 3 1",
" 	c None",
".	c #D8371E",
"+	c #AFD1D8",
"                                ",
"                                ",
"                                ",
"               ..               ",
"              ++++              ",
"             ++++++             ",
"            ++++++++            ",
"            ++....++            ",
"           ++.++++.++           ",
"           ++..+++.++           ",
"           ++.....+++           ",
"           +.++++++++           ",
"           ++......++           ",
"           ++.++.+.++           ",
"           ++.++.+.++           ",
"           ++++++++++           ",
"           ++......++           ",
"           ++.++++.++           ",
"           ++.++++.++           ",
"           +++....+++           ",
"           ++++++++++           ",
"           +++....+++           ",
"           ++.++++.++           ",
"           ++.++++.++           ",
"           +++....+++           ",
"         ..++++++++++..         ",
"        ...++++++++++...        ",
"        ...++++++++++...        ",
"        ......    ......        ",
"        ......    ......        ",
"                                ",
"                                "};
