/* XPM */
static char * qedoicon_xpm[] = {
"27 24 181 2",
"  	c None",
". 	c #646A6A",
"+ 	c #303131",
"@ 	c #262727",
"# 	c #3C3D3D",
"$ 	c #414141",
"% 	c #1C1C1C",
"& 	c #C6C8C8",
"* 	c #515252",
"= 	c #4B4B4B",
"- 	c #777878",
"; 	c #A2A4A4",
"> 	c #C3C3C3",
", 	c #D2D3D3",
"' 	c #DCDDDD",
") 	c #D8D8D8",
"! 	c #CCCDCD",
"~ 	c #B3B4B4",
"{ 	c #888989",
"] 	c #5C5C5C",
"^ 	c #8F8F8F",
"/ 	c #ECEDED",
"( 	c #F6F6F6",
"_ 	c #F3F4F4",
": 	c #F1F2F2",
"< 	c #E2E4E4",
"[ 	c #626363",
"} 	c #1D2525",
"| 	c #171818",
"1 	c #263636",
"2 	c #859797",
"3 	c #EBEBEB",
"4 	c #F0F0F0",
"5 	c #939393",
"6 	c #546464",
"7 	c #738383",
"8 	c #BCC2C2",
"9 	c #EEEFEF",
"0 	c #BABBBB",
"a 	c #344646",
"b 	c #061616",
"c 	c #274443",
"d 	c #CAD4D4",
"e 	c #E5E5E5",
"f 	c #E6E8E8",
"g 	c #DCE1E1",
"h 	c #082D2D",
"i 	c #082222",
"j 	c #0E1010",
"k 	c #E0E0E0",
"l 	c #2E4D4D",
"m 	c #2D5555",
"n 	c #98A8A8",
"o 	c #D7DEDE",
"p 	c #9BB5B6",
"q 	c #426262",
"r 	c #6B6C6C",
"s 	c #7C7C7C",
"t 	c #76908F",
"u 	c #D2DBDB",
"v 	c #BACBCB",
"w 	c #567C7C",
"x 	c #1B5757",
"y 	c #CCD8D8",
"z 	c #386666",
"A 	c #083635",
"B 	c #323B3B",
"C 	c #124F4F",
"D 	c #C3D3D3",
"E 	c #92B1B1",
"F 	c #286262",
"G 	c #ADAFAF",
"H 	c #266A6A",
"I 	c #85ACAC",
"J 	c #B3CDCD",
"K 	c #BBD0D0",
"L 	c #165F5F",
"M 	c #030404",
"N 	c #729B9B",
"O 	c #A3BFBF",
"P 	c #458484",
"Q 	c #435757",
"R 	c #348080",
"S 	c #8DB7B7",
"T 	c #ADCBCB",
"U 	c #A9C9C9",
"V 	c #74ACAC",
"W 	c #096060",
"X 	c #4A8E8E",
"Y 	c #A3C3C3",
"Z 	c #579899",
"` 	c #085050",
" .	c #326161",
"..	c #3B8F8F",
"+.	c #8BBDBD",
"@.	c #9EC7C7",
"#.	c #97C7C7",
"$.	c #65A7A7",
"%.	c #086969",
"&.	c #93C0C0",
"*.	c #399A9A",
"=.	c #7ABFC0",
"-.	c #8BC5C5",
";.	c #54ADAD",
">.	c #077373",
",.	c #84C3C3",
"'.	c #096F6F",
").	c #456F6F",
"!.	c #2E9D9C",
"~.	c #6BBCBC",
"{.	c #7CC3C3",
"].	c #50B2B2",
"^.	c #087E7E",
"/.	c #469999",
"(.	c #34A2A2",
"_.	c #72BFBF",
":.	c #48A8A8",
"<.	c #087777",
"[.	c #199F9F",
"}.	c #53B7B7",
"|.	c #6BC1C1",
"1.	c #0B8C8C",
"2.	c #35B1B1",
"3.	c #376E6E",
"4.	c #818282",
"5.	c #737373",
"6.	c #3BACAD",
"7.	c #64C0C0",
"8.	c #60BBBC",
"9.	c #31A8A8",
"0.	c #0E9C9C",
"a.	c #3AB0B0",
"b.	c #5ABCBC",
"c.	c #53BABA",
"d.	c #149D9D",
"e.	c #085858",
"f.	c #37A8A8",
"g.	c #089C9C",
"h.	c #099898",
"i.	c #8DA2A2",
"j.	c #49B6B6",
"k.	c #18A3A3",
"l.	c #25A8A8",
"m.	c #21A6A6",
"n.	c #43B3B3",
"o.	c #4DB8B8",
"p.	c #049191",
"q.	c #9CBCBC",
"r.	c #267575",
"s.	c #30ACAC",
"t.	c #3EB1B1",
"u.	c #35AEAE",
"v.	c #298888",
"w.	c #9D9E9E",
"x.	c #249797",
"y.	c #58A4A4",
"z.	c #3FA2A2",
"A.	c #1E4F4F",
"B.	c #2AAAAA",
"C.	c #0C9E9E",
"D.	c #12A0A0",
"E.	c #15A1A1",
"F.	c #129292",
"G.	c #33ADAD",
"H.	c #34ABAA",
"I.	c #177070",
"J.	c #1BA3A3",
"K.	c #1C6868",
"L.	c #143838",
"M.	c #1F5D5D",
"N.	c #37B7B7",
"O.	c #058B8B",
"P.	c #049999",
"Q.	c #0F9F9F",
"R.	c #0E9999",
"S.	c #555959",
"T.	c #039696",
"U.	c #174646",
"V.	c #067B7B",
"W.	c #FBFBFB",
"X.	c #029090",
"            . + + @ @ # $ $ # + % @ + + &             ",
"        * = @ $ - ; > , ' ' ) ! ~ { ] % % +           ",
"      # @ $ ^ ) / ( ( _ _ _ _ ( ( : < ~ [ } | _       ",
"    } 1 2 ) 3 4 3 , 5 . 6 6 . 7 8 < 9 / < 0 a b ^     ",
"  # c 6 d e f g ~ . h i j j b i a 2 d f f k 2 1 b     ",
"  l m n o g o p q h j % j r s = i c t u g g v w h |   ",
"> x t v y y v z A | B             + C p d y D E F j G ",
"+ H I J K K p L M %               0 H N J K K O P h % ",
"Q R S T T U V W j @               ( P X Y J J Y Z ` % ",
" ...+.@.@.#.$.%.|                   P ..&.@.@.#.$.%.% ",
" .*.=.-.-.-.;.>.|                   X *.,.-.-.,.;.'.% ",
").!.~.{.{.{.].^.j                   /.(._.{.{.=.:.<.% ",
"a [.}.|.|.|.}.1.M       } 2.3.4.3 5.*.6.7.|.|.8.9.W % ",
"r 0.a.b.b.b.c.d.e.s   k f.g.h.h i.w 2 q }.b.b.j.k.b | ",
"  l.m.n.o.o.j.m.p.M   # 6.h.A q.r.M M O z o.j.s.h.j % ",
"  1 p.m.a.t.a.u.m.h.v.$ w.j h ].v.x.u.y.y./.z./.A.% { ",
"  3 ..h.l.s.s.s.B.m.C.h.D.E.F.9.u.v.u.u.G.H.M M M %   ",
"    , I.g.k.m.l.l.m.m.J.k.k.J.e.M K.L.M M.9.N.u.u.)   ",
"        b O.P.Q.D.E.E.E.E.E.E.E.E.d.R.v.u.2.C u.2.| S.",
"          ] h O.p.P.g.g.g.g.g.g.P.T.p.%.M U.L M M W L ",
"              | j h ` %.V.V.>.W A b j | A e.i h V.O.M ",
"                    W.5 $ + + + [ w.W.    9 i O.X.M % ",
"                                              . b % % ",
"                                                  $ W."};
