/* XPM */
static char * node_selected_xpm[] = {
"32 32 5 1",
" 	c None",
".	c #7A7A7A",
"+	c #000000",
"@	c #195136",
"#	c #191919",
"                                ",
"                                ",
"                                ",
"                                ",
"  .......................       ",
"  .+++++++++++++++++++++.       ",
"  .+@@@@@@@@@@@@@@@@@@@+..      ",
"  .+@@@@@@@@@@@@@@@@@@@+.#.     ",
"  .+@@@@@@@@@@@@@@@@@@@+.##.    ",
"  .+@@@@@@@@@@@@@@@@@@@+.###.   ",
"  .+@@@@@@@@@@@@@@@@@@@+.###..  ",
"  .+@@@@@@@@@@@@@@@@@@@+.####.  ",
"  .+@@@@@@@@@@@@@@@@@@@+.####.  ",
"  .+@@@@@@@@@@@@@@@@@@@+.####.  ",
"  .+@@@@@@@@@@@@@@@@@@@+.####.  ",
"  .+@@@@@@@@@@@@@@@@@@@+.####.  ",
"  .+@@@@@@@@@@@@@@@@@@@+.####.  ",
"  .+@@@@@@@@@@@@@@@@@@@+.####.  ",
"  .+@@@@@@@@@@@@@@@@@@@+.####.  ",
"  .+@@@@@@@@@@@@@@@@@@@+.####.  ",
"  .+@@@@@@@@@@@@@@@@@@@+.####.  ",
"  .+@@@@@@@@@@@@@@@@@@@+.####.  ",
"  .+@@@@@@@@@@@@@@@@@@@+.###.   ",
"  .+@@@@@@@@@@@@@@@@@@@+.##.    ",
"  .+@@@@@@@@@@@@@@@@@@@+.#.     ",
"  .+++++++++++++++++++++..      ",
"  .......................       ",
"                                ",
"                                ",
"                                ",
"                                ",
"                                "};
