/* XPM */
static char * home_xpm[] = {
"32 32 5 1",
" 	c None",
".	c #000000",
"+	c #CC9633",
"@	c #FFFFFF",
"#	c #604208",
"                                ",
"                                ",
"               ..               ",
"              .++.              ",
"            ..++++..            ",
"           .++++++++.           ",
"         ..++++++++++..         ",
"       ..++++++++++++++..       ",
"      .++++++++++++++++++.      ",
"    ..++++++++++++++++++++..    ",
"   .++++++++++++++++++++++++.   ",
"  .++++++++++++++++++++++++++.  ",
"  ............................  ",
"  .++++++++++++++++++++++++++.  ",
"  .+.......++++++++++.......+.  ",
"  .+.@@@@@.++++++++++.@@@@@.+.  ",
"  .+.@@@@@.++++++++++.@@@@@.+.  ",
"  .+.@@@@@.++++++++++.@@@@@.+.  ",
"  .+.@@@@@.++++++++++.@@@@@.+.  ",
"  .+.@@@@@.++++++++++.@@@@@.+.  ",
"  .+.@@@@@.++++++++++.@@@@@.+.  ",
"  .+.......+.......++.......+.  ",
"  .+++++++++.#####.++++++++++.  ",
"  .+++++++++.#####.++++++++++.  ",
"  .+++++++++.#####.++++++++++.  ",
"  .+++++++++.#####.++++++++++.  ",
"  .+++++++++.#####.++++++++++.  ",
"  .+++++++++.#####.++++++++++.  ",
"  .+++++++++.#####.++++++++++.  ",
"  .+++++++++.#####.++++++++++.  ",
"  ............................  ",
"                                "};
