/* XPM */
static char * component_xpm[] = {
"32 32 4 1",
" 	c None",
".	c #000000",
"+	c #196AE5",
"@	c #E5BC19",
"                                ",
"                                ",
"        .................       ",
"       .+++++++++++++++++.      ",
"       .+++++++++++++++++.      ",
"       .+++++++++++++++++.      ",
" @     .+++++++++++++++++.      ",
"@@@.........+++++++++++++.      ",
" @     .+++++++++++++++++.      ",
"       .+++++++++++++++++.      ",
"       .+++++++++++++++++.      ",
"       .+++++++++++++++++.      ",
"       .+++++++++++++++++.      ",
"       .+++++++++++++++++.  @@  ",
"   @   .+++++++++++++++++. @    ",
"  @@@.....+++++++++++++....@    ",
"   @   .+++++++++++++++++. @    ",
"       .+++++++++++++++++.  @@  ",
"       .+++++++++++++++++.      ",
"       .+++++++++++++++++.  @@  ",
"   @   .+++++++++++++++++. @    ",
"  @@@......+++++++++++.....@    ",
"   @   .+++++++++++++++++. @    ",
"       .+++++++++++++++++.  @@  ",
"       .+++++++++++++++++.      ",
"       .+++++++++++++++++.      ",
"       .+++++++++++++++++.      ",
"       .+++++++++++++++++.      ",
"       .+++++++++++++++++.      ",
"        .................       ",
"                                ",
"                                "};
