/* XPM */
static char * container_selected_xpm[] = {
"32 32 3 1",
" 	c None",
".	c #000000",
"+	c #60281E",
"                                ",
"                                ",
"           ..........           ",
"       .................        ",
"  ...........................   ",
"  ............................  ",
"  .+..........................  ",
"  .+.+......................+.  ",
"  .+.+.+..................+.+.  ",
"  .+.+.+++............+++.+.+.  ",
"  .+.+.+++.++++.+++++.+++.+.+.  ",
"  .+.+.+++.++++.+++++.+++.+.+.  ",
"  .+.+.+++.++++.+++++.+++.+.+.  ",
"  .+.+.+++.++++.+++++.+++.+.+.  ",
"  .+.+.+++.++++.+++++.+++.+.+.  ",
"  .+.+.+++.++++.+++++.+++.+.+.  ",
"  .+.+.+++.++++.+++++.+++.+.+.  ",
"  .+.+.+++.++++.+++++.+++.+.+.  ",
"  .+.+.+++.++++.+++++.+++.+.+.  ",
"  .+.+.+++.++++.+++++.+++.+.+.  ",
"  .+.+.+++.++++.+++++.+++.+.+.  ",
"  .+.+.+++.++++.+++++.+++.+.+.  ",
"  .+.+.+++.++++.+++++.+++.+.+.  ",
"  .+.+.+++.++++.+++++.+++.+.+.  ",
"  ...+.+++.++++.+++++.+++.+.+.  ",
"  ...+.+++.++++.+++++.+++.+...  ",
"   .....++.++++.+++++.+++....   ",
"      .....++++.+++++.+....     ",
"        .................       ",
"            ..........          ",
"                                ",
"                                "};
