/* XPM */
static char * qedologo_xpm[] = {
"105 31 256 2",
"  	c None",
". 	c #21A6A6",
"+ 	c #A6B9B9",
"@ 	c #FBFBFB",
"# 	c #399A9A",
"$ 	c #086969",
"% 	c #2AAAAA",
"& 	c #262727",
"* 	c #469999",
"= 	c #386666",
"- 	c #92C6C6",
"; 	c #58A4A4",
"> 	c #65A7A7",
", 	c #1C1C1C",
"' 	c #298888",
") 	c #A3C3C3",
"! 	c #48A8A8",
"~ 	c #5ABCBC",
"{ 	c #149D9D",
"] 	c #8BC5C5",
"^ 	c #43B3B3",
"/ 	c #367878",
"( 	c #9BC3C3",
"_ 	c #085858",
": 	c #378888",
"< 	c #197A79",
"[ 	c #049999",
"} 	c #98A8A8",
"| 	c #458484",
"1 	c #188686",
"2 	c #467777",
"3 	c #058B8B",
"4 	c #266A6A",
"5 	c #579899",
"6 	c #267575",
"7 	c #49B6B6",
"8 	c #669797",
"9 	c #A9A9A9",
"0 	c #60BBBC",
"a 	c #8F8F8F",
"b 	c #73C3C3",
"c 	c #D2DBDB",
"d 	c #7CC3C3",
"e 	c #030404",
"f 	c #658B8B",
"g 	c #B3CDCD",
"h 	c #D2D3D3",
"i 	c #0C9E9E",
"j 	c #ADCBCB",
"k 	c #588686",
"l 	c #1C6868",
"m 	c #53BABA",
"n 	c #082222",
"o 	c #15A1A1",
"p 	c #84C3C3",
"q 	c #084747",
"r 	c #F6F6F6",
"s 	c #1B5757",
"t 	c #061616",
"u 	c #7C7C7C",
"v 	c #083635",
"w 	c #BABBBB",
"x 	c #C3C3C3",
"y 	c #263636",
"z 	c #CCCDCD",
"A 	c #395656",
"B 	c #9D9E9E",
"C 	c #A4C9C9",
"D 	c #0E1010",
"E 	c #414141",
"F 	c #099494",
"G 	c #089C9C",
"H 	c #546464",
"I 	c #344646",
"J 	c #3AB0B0",
"K 	c #1DA4A4",
"L 	c #F1F2F2",
"M 	c #3BACAD",
"N 	c #068484",
"O 	c #CAD4D4",
"P 	c #C3D3D3",
"Q 	c #515252",
"R 	c #435757",
"S 	c #18A3A3",
"T 	c #6BC1C1",
"U 	c #35AEAE",
"V 	c #E0E0E0",
"W 	c #DCE1E1",
"X 	c #426262",
"Y 	c #E9EAEA",
"Z 	c #6BBCBC",
"` 	c #64C0C0",
" .	c #DCDDDD",
"..	c #12A0A0",
"+.	c #B3B4B4",
"@.	c #E5E5E5",
"#.	c #4B4B4B",
"$.	c #ECEDED",
"%.	c #9CBCBC",
"&.	c #AAC4C4",
"*.	c #274443",
"=.	c #737373",
"-.	c #82BBBB",
";.	c #174646",
">.	c #A2A4A4",
",.	c #687979",
"'.	c #729B9B",
").	c #859797",
"!.	c #C6C8C8",
"~.	c #BACBCB",
"{.	c #92B1B1",
"].	c #34A2A2",
"^.	c #94BBBA",
"/.	c #6B6C6C",
"(.	c #89B1B1",
"_.	c #35B1B1",
":.	c #199B9B",
"<.	c #30ACAC",
"[.	c #3C3D3D",
"}.	c #5C5C5C",
"|.	c #73BABA",
"1.	c #626363",
"2.	c #818282",
"3.	c #087E7E",
"4.	c #939393",
"5.	c #8BBDBD",
"6.	c #567C7C",
"7.	c #85ACAC",
"8.	c #9EC7C7",
"9.	c #0B8C8C",
"0.	c #239C9C",
"a.	c #8CABAB",
"b.	c #2BA5A5",
"c.	c #73B4B4",
"d.	c #1B9393",
"e.	c #303131",
"f.	c #067B7B",
"g.	c #25A8A8",
"h.	c #049191",
"i.	c #BBD0D0",
"j.	c #7DABAB",
"k.	c #50B2B2",
"l.	c #7BB4B4",
"m.	c #059595",
"n.	c #79BBBB",
"o.	c #099898",
"p.	c #225353",
"q.	c #D8D8D8",
"r.	c #1D2525",
"s.	c #738383",
"t.	c #83B4B4",
"u.	c #3FA2A2",
"v.	c #7AA5A5",
"w.	c #E2E4E4",
"x.	c #2E9D9C",
"y.	c #84A6A6",
"z.	c #029090",
"A.	c #129292",
"B.	c #096F6F",
"C.	c #2D5555",
"D.	c #BCC2C2",
"E.	c #70A3A3",
"F.	c #CCD8D8",
"G.	c #74ACAC",
"H.	c #039696",
"I.	c #4DB8B8",
"J.	c #2C9191",
"K.	c #077373",
"L.	c #6AB4B4",
"M.	c #646A6A",
"N.	c #62B1B1",
"O.	c #0D8484",
"P.	c #424B4B",
"Q.	c #143838",
"R.	c #229191",
"S.	c #B2C1C1",
"T.	c #5CB3B3",
"U.	c #D7DEDE",
"V.	c #E6E8E8",
"W.	c #323B3B",
"X.	c #1BA3A3",
"Y.	c #8DA2A2",
"Z.	c #1FA0A0",
"`.	c #A3BFBF",
" +	c #37A8A8",
".+	c #2A5B5B",
"++	c #A3ABAB",
"@+	c #31A8A8",
"#+	c #1F5D5D",
"$+	c #B0BBBB",
"%+	c #0E9999",
"&+	c #979999",
"*+	c #227F7F",
"=+	c #269F9F",
"-+	c #72BFBF",
";+	c #93C0C0",
">+	c #777878",
",+	c #555959",
"'+	c #171818",
")+	c #888989",
"!+	c #EBEBEB",
"~+	c #9BB5B6",
"{+	c #348080",
"]+	c #165F5F",
"^+	c #37B7B7",
"/+	c #0F9F9F",
"(+	c #2E4D4D",
"_+	c #1CA8A8",
":+	c #38BBBB",
"<+	c #169F9F",
"[+	c #15A4A4",
"}+	c #085050",
"|+	c #F0F0F0",
"1+	c #F3F4F4",
"2+	c #99C8C8",
"3+	c #199F9F",
"4+	c #087777",
"5+	c #ADC7C7",
"6+	c #A9C9C9",
"7+	c #A5C7C7",
"8+	c #275757",
"9+	c #6DAFAF",
"0+	c #309696",
"a+	c #177070",
"b+	c #249797",
"c+	c #7EA0A0",
"d+	c #54ADAD",
"e+	c #082D2D",
"f+	c #76908F",
"g+	c #97C7C7",
"h+	c #3B8F8F",
"i+	c #1D9898",
"j+	c #149898",
"k+	c #286262",
"l+	c #ADAFAF",
"m+	c #53B7B7",
"n+	c #326161",
"o+	c #3EB1B1",
"p+	c #69B8B8",
"q+	c #456F6F",
"r+	c #1E4F4F",
"s+	c #124F4F",
"t+	c #093F3F",
"u+	c #33ADAD",
"v+	c #096060",
"w+	c #34ABAA",
"x+	c #4A8E8E",
"y+	c #598F8F",
"z+	c #1A8D8D",
"A+	c #376E6E",
"B+	c #92B8B7",
"C+	c #8DB7B7",
"D+	c #20A3A3",
"E+	c #EEEFEF",
"F+	c #0E9C9C",
"G+	c #7ABFC0",
"                                                                                                                                                                                                                  ",
"                                                                                                                                                                                                                  ",
"                                                                                                                                                                                                                  ",
"                                                                                                                                                                                                                  ",
"                            M.e.e.& & [.E E [.e., & e.e.!.                                                                              @.#.& & & & r.[.                                                          ",
"                        Q #.& E >+>.x h  . .q.z +.)+}., , e.                                                                            @.e.M.&+B 4.#.D , ,                                                       ",
"                      [.& E a q.$.r r 1+1+1+1+r r L w.+.1.r.'+1+                                                                        @.W.>.$.r @.u '+, ,                                                       ",
"                    r.y ).q.!+|+!+h 4.M.H H M.s.D.w.E+$.w.w I t a                                                                       @.I >.V.|+V u n , ,                                                       ",
"                  [.*.H O @.V.W +.M.e+n D D t n I ).O V.V.V ).y t                                                                       @.(+Y.W V.c s.e+, ,                                                       ",
"                  (+C.} U.W U.~+X e+D , D /.u #.n *.f+c W W ~.6.e+'+            r =.[.R H H R P.#.)+                    V ,+R H H [.1.Y @.C.Y.c W O s.Q., ,           h M.I R H H R [.2.V.                        ",
"                x s f+~.F.F.~.= v '+W.            e.s+~+O F.P {.k+D l+      & q+s n+2 k f f f k q+8+r+= W.          V.q+s n+k f f 2 .+;.r..+Y.P F.~.f ;., ,       & k+s n+6.f f f f 2 .+s+.+e.                    ",
"                e.4 7.g i.i.~+]+e ,               w 4 '.g i.i.`.| e+,     '+l / '.%.%.7.8 8 8 7.%.~+8 / }+r.      q.2 4 '.%.g g g &.{.8 6 | `.i.i.j y+s+, ,   +.= k+k 7.`.&.) %.%.&.5+%.v.| s+t                   ",
"                R {+C+j j 6+G.v+D &               r | x+) g g ) 5 }+,   e.6 5 B+7+^.5 a+_ }+v+6 8 ( 7+C+x+_ ,   @ q+a+G.) j j ) j.8 5 E.(.%.j g g 7+5 _ , ,   {+6 8 ) j 7+E.| 6 6 x+j.7+6+( x+]+e+@               ",
"                n+h+5.8.8.g+> $ '+                  | h+;+8.8.g+> $ , '+*+* ;+2+5.' $ e , D }.e $ h+;+2+5.: v+D W.*+* - 8.2+9+' $ n n _ *+> g+8.8.;+* $ , , P.*+9+- 2+-.* $ e D D n B.; ;+8.;+; < e /.            ",
"                n+# G+] ] ] d+K.'+                  x+# p ] ] p d+B., * z+L.] ] L.3.e , V       q+1 n.] ] d+O.t = z+N.] ] p J.B.D , e /.v+z+n.] ] p ! 4+, '+0+u.p ] p ! 3.D , , q.  , 1 N.p ] n.0+_ ,             ",
"                q+x.Z d d d k.3.D                   * ].-+d d G+! 4+, x.x.-+d d k.3.D D B B B B & A.T.d d T.i+}+B.i+p+d d p+9.t , >.    1.d.T.d d G+u.3., D i+T.d d Z 0.B., ,       E+i+! G+d G+! f.D '+          ",
"                I 3+m+T T T m+9.e       r._.A+2.!+=.# M ` T T 0 @+v+, Z.M ` T T ~ b.<+{ { { { { <+b.~ 0 0 m+. N N b.~ T T m+9.D ,       w.b.^ ` T ` w+3 , n 3+~ T T m+{ q , V.        ].b.0 T T 7 9.'+,           ",
"                /.F+J ~ ~ ~ m { _ u   V  +G o.e+Y.6.).X m+~ ~ 7 S t '+X.u+~ ~ ~ m . ..............o X.X.X.o i z.3 . I.~ ~ 7 h.D ,       W b.o+~ ~ ~ % 3 , e+S I.~ ~ 7 { q ,           <.g.m ~ ~ ^ 9.t ,           ",
"                  g.. ^ I.I.7 . h.e   [.M o.v %.6 e e `.= I.7 <.o.D , . . 7 I.7 U F v v v v v v v v v v v v v v 4+o o+I.I.o+F t ,       B . U I.I.7 g.3 , D o J I.I.o+o B.,         1+. g.7 I.7 <.3 D ,           ",
"                  y h.. J o+J U . o.' E B D e+k.' b+U ; ; * u.* r+, )+k.F+% o+o+% F e l+        V.V.            & o g.J J U ..3 e     1+@+/+u+J o+J K 3 , '+M K U o+J . F e h       y /+% J o+u+..q , ,           ",
"                  !+h+o.g.<.<.<.% . i o...o A.@+U ' U U u+w+e e e ,   r.3+o % <.% F+3 e       & J K b. +].* y+R l+g./+% <.<.. /+z./ A+@+i K <.<.<.% S 3 , , y F+. <.<.g...N n u Q | <+X.% <.% X.h.D , '+          ",
"                    h a+G S . g.g.. . X.S S X._ e l Q.e #+@+^+U U q.    q+m.X.. . X.G h.0+{+# ..i ..../+G H.4+M.z X F+X.. g.. K ..G G i ..o . g.g.. ..3 , ,   <.o.S g.. K /+[ H.i G ... . . o o._ , ,             ",
"                        t 3 [ /+..o o o o o o o o { %+' U _.s+U _.'+,+    , h.G /+..../+i i i /+..../+G h.D , ,     *.[ i ..o o o ../+i h.n G ..o ..i 3 , ,   @.n+3 G /+....o ....o o ../+G 3 e , , |+            ",
"                          }.e+3 h.[ G G G G G G [ H.h.$ e ;.]+e e v+]+      r.B.z.[ [ G G G G G [ [ z.B.e , D         4 3 [ G G G [ h.3 D n H.m.m.m.H.N , ,       [.K.h.[ G G G G G [ m.z.v+D , , 1+              ",
"                              '+D e+}+$ f.f.K.v+v t D '+v _ n e+f.3 e '+      @ D e+v v+$ $ $ _ v n D , , #.            )+t v+$ $ v D '+, D /.D D D D D , ,           & t t+$ $ $ v+v D D , , , @                 ",
"                                    @ 4.E e.e.e.1.B @     E+n 3 z.e ,                 z =.E E E E 4.@                         9 E E ,+q.                                    @ 4.E E E =.q.                        ",
"                                                              M.t , ,                                                                                                                                             ",
"                                                                  E @                                                                                                                                             ",
"                                                                                                                                                                                                                  ",
"                                                                                                                                                                                                                  ",
"                                                                                                                                                                                                                  "};
