/* XPM */
static char * component_server_selected_xpm[] = {
"32 32 3 1",
" 	c None",
".	c #353535",
"+	c #D8B817",
"                                ",
"                                ",
"        ................        ",
"        ................        ",
"    ++++++............++++++    ",
"   ++   ................   ++   ",
"        ................        ",
"        ................        ",
"    ++++++............++++++    ",
"   ++   ................   ++   ",
"        ................        ",
"        ................        ",
"    ++++++............++++++    ",
"   ++   ................   ++   ",
"        ................        ",
"        ................        ",
"    ++++++............++++++    ",
"   ++   ................   ++   ",
"        ................        ",
"        ................        ",
"    ++++++............++++++    ",
"   ++   ................   ++   ",
"        ................        ",
"        ................        ",
"    ++++++............++++++    ",
"   ++   ................   ++   ",
"        ................        ",
"        ................        ",
"    ++++++............++++++    ",
"   ++   ................   ++   ",
"                                ",
"                                "};
