/* XPM */
static char * qedoicon_xpm[] = {
"32 32 665 2",
"  	c None",
". 	c #646A6A",
"+ 	c #575C5C",
"@ 	c #303131",
"# 	c #2B2C2C",
"$ 	c #262727",
"% 	c #363838",
"& 	c #3E3F3F",
"* 	c #414141",
"= 	c #3D3E3E",
"- 	c #363737",
"; 	c #1C1C1C",
"> 	c #242424",
", 	c #A0A2A2",
"' 	c #C6C8C8",
") 	c #535656",
"! 	c #4C5050",
"~ 	c #343535",
"{ 	c #434444",
"] 	c #474848",
"^ 	c #4D4E4E",
"/ 	c #5C5D5D",
"( 	c #656565",
"_ 	c #686868",
": 	c #646565",
"< 	c #5D5E5E",
"[ 	c #525252",
"} 	c #424242",
"| 	c #3F4040",
"1 	c #373838",
"2 	c #7F8181",
"3 	c #868787",
"4 	c #515252",
"5 	c #4C4D4D",
"6 	c #383939",
"7 	c #2D2E2E",
"8 	c #6A6A6A",
"9 	c #8C8E8E",
"0 	c #AAACAC",
"a 	c #C3C3C3",
"b 	c #CECFCF",
"c 	c #D7D8D8",
"d 	c #DCDDDD",
"e 	c #D9D9D9",
"f 	c #D2D2D2",
"g 	c #C6C7C7",
"h 	c #B3B4B4",
"i 	c #939494",
"j 	c #727272",
"k 	c #4C4C4C",
"l 	c #262626",
"m 	c #393A3A",
"n 	c #313232",
"o 	c #3F3F3F",
"p 	c #5C5C5C",
"q 	c #848484",
"r 	c #B2B2B2",
"s 	c #C8C8C8",
"t 	c #D8D9D9",
"u 	c #E3E3E3",
"v 	c #E9E9E9",
"w 	c #EAEBEB",
"x 	c #ECEDED",
"y 	c #EDEEEE",
"z 	c #ECECEC",
"A 	c #EAEAEA",
"B 	c #E5E6E6",
"C 	c #DADBDB",
"D 	c #CCCDCD",
"E 	c #B4B5B5",
"F 	c #8D8E8E",
"G 	c #606060",
"H 	c #393D3D",
"I 	c #202525",
"J 	c #171818",
"K 	c #BCBDBD",
"L 	c #2A3333",
"M 	c #3A4343",
"N 	c #565F5F",
"O 	c #A5A5A5",
"P 	c #C7C7C7",
"Q 	c #E4E4E4",
"R 	c #E8E8E8",
"S 	c #DCDCDC",
"T 	c #C4C4C4",
"U 	c #B2B4B4",
"V 	c #A8AEAE",
"W 	c #A4ACAC",
"X 	c #AAAEAE",
"Y 	c #B0B6B6",
"Z 	c #BEC4C4",
"` 	c #D9DCDC",
" .	c #E5E7E7",
"..	c #E9EAEA",
"+.	c #E2E3E3",
"@.	c #D0D0D0",
"#.	c #ADAFAF",
"$.	c #878A8A",
"%.	c #5A6060",
"&.	c #262F2F",
"*.	c #677070",
"=.	c #838888",
"-.	c #222E2E",
";.	c #283737",
">.	c #4B5B5B",
",.	c #96A6A6",
"'.	c #CACECE",
").	c #EBECEC",
"!.	c #E0E1E1",
"~.	c #CACBCB",
"{.	c #A5A9A9",
"].	c #707A7A",
"^.	c #566060",
"/.	c #485454",
"(.	c #424F4F",
"_.	c #4A5454",
":.	c #526060",
"<.	c #697979",
"[.	c #9AA3A3",
"}.	c #BFC5C5",
"|.	c #D8DCDC",
"1.	c #E6E9E9",
"2.	c #EAECEC",
"3.	c #D3D5D5",
"4.	c #A5AAAA",
"5.	c #485A5A",
"6.	c #1D2D2D",
"7.	c #3D4747",
"8.	c #6D7171",
"9.	c #3C3D3D",
"0.	c #2C4242",
"a.	c #3E5454",
"b.	c #728080",
"c.	c #CAD4D4",
"d.	c #DEE1E1",
"e.	c #E6E6E6",
"f.	c #E4E6E6",
"g.	c #DCE1E1",
"h.	c #BDBFBF",
"i.	c #8C8F8F",
"j.	c #4D5B5B",
"k.	c #082D2D",
"l.	c #082525",
"m.	c #0B1919",
"n.	c #0E1010",
"o.	c #081414",
"p.	c #071C1C",
"q.	c #132B2B",
"r.	c #344646",
"s.	c #718383",
"t.	c #A8B6B6",
"u.	c #D1D9D9",
"v.	c #E6E8E8",
"w.	c #E3E4E4",
"x.	c #C9CECE",
"y.	c #859797",
"z.	c #3E4E4E",
"A.	c #162626",
"B.	c #061616",
"C.	c #324949",
"D.	c #2D4F4F",
"E.	c #597474",
"F.	c #9AA8A8",
"G.	c #D4DCDC",
"H.	c #DCE0E0",
"I.	c #CFD8D9",
"J.	c #ABC0C1",
"K.	c #728989",
"L.	c #3F5959",
"M.	c #1A3333",
"N.	c #0C1717",
"O.	c #141C1C",
"P.	c #121717",
"Q.	c #1F2121",
"R.	c #545555",
"S.	c #5C5F5F",
"T.	c #4C5252",
"U.	c #303B3B",
"V.	c #344D4D",
"W.	c #657D7C",
"X.	c #9EB0B0",
"Y.	c #D7DEDE",
"Z.	c #DDE2E2",
"`.	c #DEE2E2",
" +	c #D1D8D8",
".+	c #ADBEBE",
"++	c #637F7F",
"@+	c #294949",
"#+	c #0B2424",
"$+	c #245252",
"%+	c #466A6A",
"&+	c #7D9696",
"*+	c #B3C2C2",
"=+	c #D2DBDB",
"-+	c #D3DCDC",
";+	c #CED8D8",
">+	c #B1C3C3",
",+	c #6A8E8E",
"'+	c #365C5C",
")+	c #1A3737",
"!+	c #142323",
"~+	c #202626",
"{+	c #1E2020",
"]+	c #151616",
"^+	c #252727",
"/+	c #6B6C6C",
"(+	c #787878",
"_+	c #646464",
":+	c #3A4141",
"<+	c #082222",
"[+	c #263737",
"}+	c #385554",
"|+	c #618685",
"1+	c #B6C8C8",
"2+	c #CCD6D6",
"3+	c #CFD9D9",
"4+	c #BECFCF",
"5+	c #87A5A5",
"6+	c #466F6F",
"7+	c #173B3B",
"8+	c #1E5C5C",
"9+	c #638888",
"0+	c #99B1B1",
"a+	c #BCCECE",
"b+	c #C8D6D6",
"c+	c #BDCECE",
"d+	c #92ADAD",
"e+	c #306464",
"f+	c #113838",
"g+	c #102121",
"h+	c #1D2020",
"i+	c #323B3B",
"j+	c #525454",
"k+	c #355555",
"l+	c #356C6C",
"m+	c #91AEAF",
"n+	c #B7C9CA",
"o+	c #C6D4D4",
"p+	c #C6D5D5",
"q+	c #C1D2D2",
"r+	c #A1BCBC",
"s+	c #639090",
"t+	c #275656",
"u+	c #266A6A",
"v+	c #6D9C9C",
"w+	c #9CBCBC",
"x+	c #B5CECE",
"y+	c #BBD0D0",
"z+	c #ABC2C3",
"A+	c #7AA0A0",
"B+	c #165F5F",
"C+	c #081B1B",
"D+	c #101010",
"E+	c #BABBBB",
"F+	c #709292",
"G+	c #397676",
"H+	c #729B9B",
"I+	c #A3C0C0",
"J+	c #B7CECE",
"K+	c #A9C3C3",
"L+	c #74A2A2",
"M+	c #366E6E",
"N+	c #307A7A",
"O+	c #74A6A6",
"P+	c #9DC0C0",
"Q+	c #AFCCCC",
"R+	c #B0CCCC",
"S+	c #AECBCB",
"T+	c #96BCBD",
"U+	c #619B9B",
"V+	c #0C6060",
"W+	c #0C2222",
"X+	c #171919",
"Y+	c #E7E7E7",
"Z+	c #92B2B2",
"`+	c #438282",
" @	c #549191",
".@	c #92B8B8",
"+@	c #AECACA",
"@@	c #A8C5C5",
"#@	c #7BAAAB",
"$@	c #408081",
"%@	c #388888",
"&@	c #77ADAD",
"*@	c #99C2C2",
"=@	c #A6C9C9",
"-@	c #A1C8C8",
";@	c #86B9B9",
">@	c #549898",
",@	c #086464",
"'@	c #102828",
")@	c #191A1A",
"!@	c #80AAAA",
"~@	c #448787",
"{@	c #428E8E",
"]@	c #85B5B5",
"^@	c #A2C6C6",
"/@	c #A8CACA",
"(@	c #A0C6C6",
"_@	c #7EB2B2",
":@	c #488F8F",
"<@	c #3A9292",
"[@	c #74B3B3",
"}@	c #90C2C2",
"|@	c #99C6C6",
"1@	c #95C6C6",
"2@	c #7AB8B8",
"3@	c #4A9999",
"4@	c #086C6C",
"5@	c #132D2D",
"6@	c #468686",
"7@	c #438989",
"8@	c #7AB5B5",
"9@	c #94C4C4",
"0@	c #94C6C6",
"a@	c #7AB7B7",
"b@	c #4B9999",
"c@	c #399A9A",
"d@	c #6AB6B6",
"e@	c #82C2C2",
"f@	c #8BC5C5",
"g@	c #70B9B9",
"h@	c #419E9E",
"i@	c #077373",
"j@	c #132F2F",
"k@	c #4A8E8E",
"l@	c #469191",
"m@	c #71B9B9",
"n@	c #88C4C4",
"o@	c #86C4C4",
"p@	c #6CB8B8",
"q@	c #319C9C",
"r@	c #5FB5B5",
"s@	c #77C0C0",
"t@	c #80C4C4",
"u@	c #68BABA",
"v@	c #3FA3A3",
"w@	c #087B7B",
"x@	c #0E2C2C",
"y@	c #101212",
"z@	c #479696",
"A@	c #439999",
"B@	c #35A0A0",
"C@	c #66B8B8",
"D@	c #7BC2C2",
"E@	c #7DC1C1",
"F@	c #64B5B5",
"G@	c #3A9C9C",
"H@	c #249E9E",
"I@	c #50B3B2",
"J@	c #69BEBE",
"K@	c #74C2C2",
"L@	c #62BBBB",
"M@	c #40A9A9",
"N@	c #0A8585",
"O@	c #092929",
"P@	c #080A0A",
"Q@	c #234848",
"R@	c #35B1B1",
"S@	c #367F7F",
"T@	c #5C7878",
"U@	c #9C9C9C",
"V@	c #EBEBEB",
"W@	c #919191",
"X@	c #518D8D",
"Y@	c #3E9D9D",
"Z@	c #38A7A8",
"`@	c #5EB9BA",
" #	c #6FC1C1",
".#	c #6FBEBF",
"+#	c #55B2B3",
"@#	c #309999",
"##	c #169E9E",
"$#	c #3FB0B0",
"%#	c #5ABABA",
"&#	c #67C0C0",
"*#	c #5DBCBC",
"=#	c #42AEAE",
"-#	c #0D9090",
";#	c #063737",
">#	c #1C2D2D",
",#	c #496565",
"'#	c #255F5F",
")#	c #2AACAC",
"!#	c #2B8585",
"~#	c #477373",
"{#	c #7F8888",
"]#	c #D4D9D9",
"^#	c #868E8E",
"/#	c #5C8787",
"(#	c #48999A",
"_#	c #3D9A9A",
":#	c #57B5B5",
"<#	c #63BFBF",
"[#	c #5DBBBC",
"}#	c #42B0B1",
"|#	c #229090",
"1#	c #0E9C9C",
"2#	c #2FABAB",
"3#	c #4AB6B6",
"4#	c #5ABCBC",
"5#	c #56BBBB",
"6#	c #43B3B3",
"7#	c #149D9D",
"8#	c #0B6969",
"9#	c #426A6A",
"0#	c #7C7C7C",
"a#	c #E0E0E0",
"b#	c #8CC4C4",
"c#	c #2BA5A5",
"d#	c #089C9C",
"e#	c #099999",
"f#	c #086262",
"g#	c #294A4A",
"h#	c #8DA2A2",
"i#	c #648686",
"j#	c #6E8A8A",
"k#	c #748A8A",
"l#	c #426262",
"m#	c #4FA2A2",
"n#	c #56BABA",
"o#	c #4DB8B8",
"p#	c #30ACAC",
"q#	c #148080",
"r#	c #1FA5A5",
"s#	c #25A8A8",
"t#	c #38AFAF",
"u#	c #4BB6B6",
"v#	c #50B9B9",
"w#	c #4EB8B8",
"x#	c #40B2B2",
"y#	c #1EA4A4",
"z#	c #0B8B8B",
"A#	c #135252",
"B#	c #212222",
"C#	c #656666",
"D#	c #508889",
"E#	c #2EA6A7",
"F#	c #086161",
"G#	c #407373",
"H#	c #699292",
"I#	c #408080",
"J#	c #223A3A",
"K#	c #1E2525",
"L#	c #3D4848",
"M#	c #8BA8A8",
"N#	c #528686",
"O#	c #489A9A",
"P#	c #3CB1B1",
"Q#	c #22A5A5",
"R#	c #0D7878",
"S#	c #266F6F",
"T#	c #179090",
"U#	c #22A4A4",
"V#	c #36AEAE",
"W#	c #44B4B4",
"X#	c #45B4B4",
"Y#	c #2BAAAA",
"Z#	c #199F9F",
"`#	c #0C7575",
" $	c #0B5656",
".$	c #298888",
"+$	c #3B4949",
"@$	c #557272",
"#$	c #0C5454",
"$$	c #093A3A",
"%$	c #3F7474",
"&$	c #62A9A9",
"*$	c #287E7E",
"=$	c #185A5A",
"-$	c #185353",
";$	c #346F6F",
">$	c #559090",
",$	c #499797",
"'$	c #48A9A9",
")$	c #44ACAC",
"!$	c #3DA5A5",
"~$	c #278B8B",
"{$	c #145C5C",
"]$	c #576363",
"^$	c #238585",
"/$	c #169A9A",
"($	c #21A5A5",
"_$	c #35AEAE",
":$	c #39AFAF",
"<$	c #37AFAF",
"[$	c #34AEAE",
"}$	c #27A9A9",
"|$	c #19A1A1",
"1$	c #149898",
"2$	c #228E8E",
"3$	c #2F6464",
"4$	c #577B7B",
"5$	c #608484",
"6$	c #103434",
"7$	c #0C4242",
"8$	c #297B7B",
"9$	c #41A8A8",
"0$	c #2C9292",
"a$	c #279393",
"b$	c #2DA1A1",
"c$	c #3CACAC",
"d$	c #4FA6A6",
"e$	c #48A2A2",
"f$	c #3D9595",
"g$	c #347575",
"h$	c #265858",
"i$	c #183434",
"j$	c #67A6A6",
"k$	c #229494",
"l$	c #109C9C",
"m$	c #2DABAB",
"n$	c #2CAAAA",
"o$	c #26A8A8",
"p$	c #1CA4A4",
"q$	c #0C9E9E",
"r$	c #0A9A9A",
"s$	c #13A0A0",
"t$	c #15A1A1",
"u$	c #139696",
"v$	c #229D9D",
"w$	c #32AAAA",
"x$	c #2F9B9B",
"y$	c #34ADAD",
"z$	c #34ACAC",
"A$	c #288180",
"B$	c #030404",
"C$	c #090A0A",
"D$	c #B1C5C5",
"E$	c #609E9E",
"F$	c #128383",
"G$	c #0F9F9F",
"H$	c #1AA4A4",
"I$	c #21A6A6",
"J$	c #28A9A9",
"K$	c #24A7A7",
"L$	c #20A6A6",
"M$	c #18A1A1",
"N$	c #16A1A1",
"O$	c #17A2A2",
"P$	c #18A0A0",
"Q$	c #168585",
"R$	c #125D5D",
"S$	c #102E2E",
"T$	c #1B6060",
"U$	c #1E6363",
"V$	c #194C4C",
"W$	c #1F6060",
"X$	c #2B8D8D",
"Y$	c #30A1A1",
"Z$	c #2A8A8A",
"`$	c #298585",
" %	c #288484",
".%	c #498D8D",
"+%	c #116767",
"@%	c #075959",
"#%	c #0D8888",
"$%	c #109B9B",
"%%	c #14A0A0",
"&%	c #1BA4A4",
"*%	c #19A2A2",
"=%	c #16A2A2",
"-%	c #18A2A2",
";%	c #138F8F",
">%	c #0E7272",
",%	c #0C5252",
"'%	c #157676",
")%	c #147676",
"!%	c #126060",
"~%	c #164646",
"{%	c #257676",
"]%	c #2E9999",
"^%	c #2FA2A2",
"/%	c #248383",
"(%	c #31A3A3",
"_%	c #35AFAF",
":%	c #46A2A2",
"<%	c #176A6A",
"[%	c #107F7F",
"}%	c #078585",
"|%	c #0C9A9A",
"1%	c #109E9E",
"2%	c #119F9F",
"3%	c #12A0A0",
"4%	c #0E9999",
"5%	c #119191",
"6%	c #218080",
"7%	c #278383",
"8%	c #278585",
"9%	c #135353",
"0%	c #237777",
"a%	c #288585",
"b%	c #236F6F",
"c%	c #324444",
"d%	c #074444",
"e%	c #058B8B",
"f%	c #049090",
"g%	c #049595",
"h%	c #059A9A",
"i%	c #079B9B",
"j%	c #049999",
"k%	c #039797",
"l%	c #049494",
"m%	c #058787",
"n%	c #086969",
"o%	c #041D1D",
"p%	c #0D2525",
"q%	c #174C4C",
"r%	c #041B1B",
"s%	c #123535",
"t%	c #0D3131",
"u%	c #093C3C",
"v%	c #074F4F",
"w%	c #086363",
"x%	c #087171",
"y%	c #077C7C",
"z%	c #068383",
"A%	c #077F7F",
"B%	c #087676",
"C%	c #086767",
"D%	c #074F4E",
"E%	c #063C3C",
"F%	c #083333",
"G%	c #0D2F2F",
"H%	c #132C2C",
"I%	c #0A2A2A",
"J%	c #093E3E",
"K%	c #0C4B4B",
"L%	c #0C3131",
"M%	c #082626",
"N%	c #064040",
"O%	c #056666",
"P%	c #0B1E1E",
"Q%	c #395D5D",
"R%	c #82A6A6",
"S%	c #5A8888",
"T%	c #386E6E",
"U%	c #215C5C",
"V%	c #1B5656",
"W%	c #1B5353",
"X%	c #1C4D4D",
"Y%	c #234A49",
"Z%	c #354C4C",
"`%	c #4A5756",
" &	c #6B7070",
".&	c #757676",
"+&	c #0C2E2E",
"@&	c #557F7F",
"#&	c #5E8383",
"$&	c #074E4E",
"%&	c #057171",
"&&	c #047676",
"*&	c #FBFBFB",
"=&	c #ADADAD",
"-&	c #3D3D3D",
";&	c #3C3E3E",
">&	c #626363",
",&	c #8E8F8F",
"'&	c #CCCCCC",
")&	c #B4BCBC",
"!&	c #196F6F",
"~&	c #107A7A",
"{&	c #055858",
"]&	c #354040",
"^&	c #0C1818",
"            . + @ @ # $ $ % & * * = - # ; > # @ @ , '           ",
"            ) ! ~ & { ] ^ / ( _ _ : < [ } | = 1 # 2 3           ",
"        4 5 6 7 * 8 9 0 a b c d d e f g h i j k ; ; l @         ",
"      m n o p q r s t u v w x y y x z A B C D E F G H I J K     ",
"    L M N 2 O P Q A R S T U V W W X Y Z `  ...+.@.#.$.%.&.*.=.  ",
"  -.;.>.,.'.+.w ).!.~.{.].^./.(.(._.:.<.[.}.|.1.2. .3.4.5.6.7.8.",
"9.0.a.b.c.d.e.f.g.h.i.j.k.l.m.n.n.o.p.q.r.s.t.u.v.v.w.x.y.z.A.B.",
"C.D.E.F.G.H.g.I.J.K.L.M.N.O.P.Q.R.S.T.U.q.V.W.X.Y.Z.`. +.+++@+#+",
"$+%+&+*+=+-+;+>+,+'+)+!+~+{+]+^+/+(+_+:+<+[+}+|+1+2+G.3+4+5+6+7+",
"8+9+0+a+b+b+c+d+e+f+g+h+i+                j+k+l+m+n+o+p+q+r+s+t+",
"u+v+w+x+y+y+z+A+B+C+D+;                   E+F+G+H+I+J+y+y+K+L+M+",
"N+O+P+Q+R+S+T+U+V+W+X+>                   Y+Z+`+ @.@+@x+x+@@#@$@",
"%@&@*@=@=@-@;@>@,@'@)@                      !@~@{@]@^@/@/@(@_@:@",
"<@[@}@|@|@1@2@3@4@5@J                       6@7@<@8@9@|@|@0@a@b@",
"c@d@e@f@f@f@g@h@i@j@J                       k@l@c@m@n@f@f@o@p@h@",
"q@r@s@t@t@t@u@v@w@x@y@                      z@A@B@C@D@t@t@E@F@G@",
"H@I@J@K@K@K@L@M@N@O@P@        Q@R@S@T@U@V@W@X@Y@Z@`@ #K@K@.#+#@#",
"##$#%#&#&#&#*#=#-#;#>#      ,#'#)#!#~#{#]#^#/#(#_#:#<#&#&#[#}#|#",
"1#2#3#4#4#4#5#6#7#8#9#0#  a#b#c#d#e#f#g#h#i#j#k#l#m#n#4#4#o#p#q#",
"r#s#t#u#v#v#w#x#y#z#A#B#  C#D#E#e#F#G#H#I#J#K#L#M#N#O#v#o#P#Q#R#",
"S#T#U#V#W#X#W#P#Y#Z#`# $.$+$@$ @#$$$%$&$*$=$-$;$_@>$,$'$)$!$~${$",
"]$^$/$($_$:$:$<$[$}$|$1$2$3$4$5$6$7$8$9$0$a$b$c$d$d$e$f$N+g$h$i$",
"V@j$k$l$s#m$p#p#p#n$o$p$q$r$1#s$t$u$v$w$_$0$x$_$_$y$z$A$B$B$B$C$",
"  D$E$F$G$H$I$o$J$}$K$L$p$M$N$O$O$P$Q$R$S$T$U$V$S$W$X$Y$Z$`$ %.%",
"    L++%@%#%$%%%H$&%&%&%&%*%O$=%=%-%;%>%,%'%)%!%~%{%]%^%/%(%_%:%",
"        B.<%[%}%|%1#1%2%3%3%3%3%3%3%3%3%2%l$4%5%6%7%X$8%9%0%a%b%",
"          p c%d%e%f%g%h%d#d#d#d#d#d#d#i%j%k%l%m%n%o%p%q%B+C+B$r%",
"                s%t%u%v%w%x%y%z%z%A%B%C%D%E%F%G%H%I%J%K%L%M%N%O%",
"                J y@P%Q%R%S%T%U%V%W%X%Y%Z%`% &.&J +&@&#&<+$&%&&&",
"                        *&=&8 -&@ @ @ ;&>&,&'&*&      )&<+!&~&{&",
"                                                          . ]&^&",
"                                                                "};
